# xmcd
#
# Track frame offsets:
#	150
#	13980
#	26475
#	39538
#	53150
#	68363
#	80930
#	94581
#	109606
#	125418
#	136681
#	149026
#
# Disc length: 2241 seconds
#
# Revision: 1
# Processed by: cddbd v1.5.1PL2 Copyright (c) Steve Scherf et al.
# Submitted via: audiograbber 1.83.01
#
DISCID=a108bf0c
DTITLE=Memphis Radio Kings - Four
DYEAR=2006
DGENRE=Country Rock
TTITLE0=This Ghost
TTITLE1=Sudden Summer
TTITLE2=I Want You To Fall
TTITLE3=Frehley´s Comet (Fell On Me Tonight)
TTITLE4=Last Lullaby
TTITLE5=$ 2 Whiskey Pill
TTITLE6=Divide
TTITLE7=Darken Your Doorstep
TTITLE8=Brand New Depression
TTITLE9=Alabaster Carpet
TTITLE10=Shameless
TTITLE11=The Fate Of The Working Man
EXTD=
EXTT0=
EXTT1=
EXTT2=
EXTT3=
EXTT4=
EXTT5=
EXTT6=
EXTT7=
EXTT8=
EXTT9=
EXTT10=
EXTT11=
PLAYORDER=
